<svg width="1265" height="1265" viewBox="0 0 1265 1265" fill="none" xmlns="http://www.w3.org/2000/svg">
<circle cx="632.5" cy="632.5" r="632.5" fill="white"/>
<path d="M606.496 358.145L572.627 377.721L488.462 329.119L245.214 469.574L211.277 450.031L488.462 290L606.496 358.145Z" fill="black"/>
<path d="M229.869 491.994V771.346L196 790.855V472.52L229.869 491.994Z" fill="black"/>
<path d="M780.917 458.871V796.546L692.959 847.349L659.124 866.892L625.221 886.434L591.352 906.011L488.458 965.417L218.148 809.348L252.119 789.84L488.458 926.298L557.483 886.434L591.352 866.892L625.255 847.316L659.09 827.773L747.048 777.003V478.414L674.229 436.382L708.099 416.806L780.917 458.871Z" fill="black"/>
<path d="M1055.97 459.716L1022.07 479.225L777.159 337.855L708.134 377.719L674.231 397.261L640.361 416.838L606.526 436.38L518.568 487.15V785.74L591.387 827.771L557.518 847.348L484.699 805.316V467.608L572.657 416.804L606.492 397.261L640.361 377.719L674.264 358.143L777.159 298.736L1055.97 459.716Z" fill="black"/>
<path d="M1064.3 808.397L777.163 974.153L659.129 906.008L692.998 886.432L777.163 935.034L1030.33 788.889L1064.3 808.397Z" fill="black"/>
<path d="M1069.65 483.122V780.222L1035.78 760.747V502.597L1069.65 483.122Z" fill="black"/>
</svg>
