<svg width="1713" height="930" viewBox="0 0 1713 930" fill="none" xmlns="http://www.w3.org/2000/svg">
<path d="M837.591 51.3759L812.171 66.0685L749.003 29.5912L566.438 135.007L540.968 120.34L749.003 0.231445L837.591 51.3759Z" fill="#201E1D"/>
<path d="M554.923 151.832V361.494L529.503 376.136V137.216L554.923 151.832Z" fill="#FE795D"/>
<path d="M968.502 126.976V380.41L902.487 418.54L877.093 433.207L851.648 447.874L826.228 462.567L749.003 507.153L546.128 390.019L571.624 375.377L749.003 477.793L800.808 447.874L826.228 433.207L851.673 418.514L877.067 403.847L943.082 365.743V141.643L888.43 110.097L913.85 95.4043L968.502 126.976Z" fill="#201E1D"/>
<path d="M1174.93 127.607L1149.49 142.249L965.678 36.1469L913.873 66.0659L888.427 80.733L863.008 95.4256L837.613 110.093L771.598 148.197V372.297L826.251 403.843L800.831 418.536L746.179 386.99V133.53L812.194 95.4003L837.588 80.733L863.008 66.0659L888.453 51.3733L965.678 6.78711L1174.93 127.607Z" fill="#201E1D"/>
<path d="M1181.19 389.305L965.681 513.709L877.094 462.565L902.513 447.872L965.681 484.349L1155.69 374.663L1181.19 389.305Z" fill="#201E1D"/>
<path d="M1185.2 145.176V368.158L1159.78 353.541V159.792L1185.2 145.176Z" fill="#9B78F4"/>
<path d="M21.746 893.201V703.563H49.0321L156.539 858.275V703.836H181.097V893.201H153.811L46.3035 738.489V893.201H21.746ZM303.669 895.93C248.005 895.93 212.533 856.365 212.533 797.973C212.533 739.58 248.005 699.47 303.669 699.47C359.878 699.47 395.077 739.58 395.077 797.973C395.077 856.092 359.605 895.93 303.669 895.93ZM238.728 797.973C238.728 842.722 263.831 874.919 303.669 874.919C344.325 874.919 369.156 842.449 369.156 797.973C369.156 752.678 344.325 720.753 303.669 720.753C263.831 720.753 238.728 752.678 238.728 797.973ZM503.687 893.201V703.563L583.635 703.836C620.744 704.109 643.664 720.48 643.664 752.132C643.664 774.78 631.658 786.513 616.651 792.515C639.571 798.246 651.85 813.526 651.85 838.902C651.85 871.372 628.384 893.201 586.091 893.201H503.687ZM528.244 872.464H582.543C614.741 872.464 627.02 856.911 627.02 837.538C627.02 817.346 614.468 804.249 580.088 804.249L528.244 803.976V872.464ZM528.244 784.603H580.088C606.282 784.875 619.652 773.688 619.652 753.769C619.652 734.123 603.554 724.573 579.542 724.573H528.244V784.603ZM761.894 895.93C706.23 895.93 670.758 856.365 670.758 797.973C670.758 739.58 706.23 699.47 761.894 699.47C818.103 699.47 853.302 739.58 853.302 797.973C853.302 856.092 817.831 895.93 761.894 895.93ZM696.953 797.973C696.953 842.722 722.056 874.919 761.894 874.919C802.55 874.919 827.381 842.449 827.381 797.973C827.381 752.678 802.55 720.753 761.894 720.753C722.056 720.753 696.953 752.678 696.953 797.973ZM878.546 893.201L951.127 796.336L881.275 703.563H911.017L965.316 777.235L1019.62 703.563H1049.36L979.505 796.336L1052.09 893.201H1022.34L965.316 815.709L908.288 893.201H878.546ZM1161.08 893.201V703.563H1230.93C1287.96 703.563 1322.89 735.488 1322.89 797.154C1322.89 856.911 1289.05 893.201 1233.66 893.201H1161.08ZM1185.64 872.464H1227.38C1275.41 872.464 1298.05 845.451 1298.05 798.246C1298.05 749.131 1275.95 724.3 1228.75 724.3H1185.64V872.464ZM1354.27 893.201V703.563H1491.52V724.027H1379.1V785.967H1481.42V806.704H1379.1V872.464H1491.52V893.201H1354.27ZM1573.39 893.201L1507.09 703.563H1534.65L1591.13 871.645L1647.88 703.563H1675.44L1608.05 893.201H1573.39Z" fill="#201E1D"/>
</svg>
