<svg width="1245" height="975" viewBox="0 0 1245 975" fill="none" xmlns="http://www.w3.org/2000/svg">
<path d="M584.983 97.4068L536.758 125.281L416.917 56.0774L70.5613 256.069L22.2393 228.243L416.917 0.376953L584.983 97.4068Z" fill="#201E1D"/>
<path d="M48.7148 287.993V685.758L0.489258 713.536V260.264L48.7148 287.993Z" fill="#FE795D"/>
<path d="M833.344 240.829V721.638L708.103 793.976L659.925 821.802L611.652 849.629L563.426 877.503L416.917 962.09L32.0283 739.867L80.3986 712.089L416.917 906.39L515.2 849.629L563.426 821.802L611.7 793.928L659.877 766.102L785.119 693.812V268.655L681.434 208.807L729.659 180.933L833.344 240.829Z" fill="#201E1D"/>
<path d="M1224.99 242.032L1176.71 269.81L827.992 68.5159L729.709 125.277L681.435 153.104L633.209 180.978L585.032 208.804L459.79 281.094V706.251L563.475 766.099L515.249 793.973L411.564 734.125V253.268L536.806 180.93L584.984 153.104L633.209 125.277L681.483 97.4031L827.992 12.8154L1224.99 242.032Z" fill="#201E1D"/>
<path d="M1236.86 738.512L828 974.528L659.934 877.498L708.159 849.624L828 918.828L1188.49 710.734L1236.86 738.512Z" fill="#201E1D"/>
<path d="M1244.47 275.359V698.394L1196.24 670.664V303.089L1244.47 275.359Z" fill="#9B78F4"/>
</svg>
